<svg xmlns="http://www.w3.org/2000/svg" aria-hidden="true" focusable="false" data-poster="lemons"><path d="M-2000 -2000h4800v4800h-4800Z" fill="#152a79"/><svg x="0" y="0" width="100%" height="100%" viewBox="0 0 400 128" preserveAspectRatio="xMaxYMax meet"><svg x="250.3" y="0" width="149.7" height="128" viewBox="0 98 400 342" preserveAspectRatio="xMidYMid meet"><path d="M 32 356 C 180 330, 320 240, 420 110 L 420 560 C 320 470, 180 380, 32 356 Z" fill="#b73a15"/><path d="M 32 356 C 180 340, 320 300, 420 272 L 420 392 C 320 386, 180 368, 32 356 Z" fill="#fceeaf"/></svg></svg><svg x="0" y="0" width="100%" height="100%" viewBox="0 0 400 128" preserveAspectRatio="xMinYMax meet" overflow="visible"><path data-numeral="01" d="M43.9 117.4Q25.9 117.4 15.9 103.6Q5.9 89.9 5.9 65.1Q5.9 40.4 16 26.6Q26 12.8 43.9 12.8Q61.8 12.8 71.8 26.6Q81.8 40.5 81.8 65.1Q81.8 89.9 71.8 103.6Q61.9 117.4 43.9 117.4ZM43.9 100.1Q52.6 100.1 57.4 91Q62.1 81.9 62.1 65.1Q62.1 48.3 57.4 39.2Q52.6 30 43.9 30Q35.1 30 30.5 39.2Q25.8 48.4 25.8 65.1Q25.8 81.9 30.4 91Q35.1 100.1 43.9 100.1ZM126.3 14.1L126.3 116L106.9 116L106.9 32.5L106.3 32.5L84.6 49L84.6 29.9L105.5 14.1L126.3 14.1Z" fill="#fceeaf" stroke="#152a79" stroke-width="7" stroke-linejoin="round" paint-order="stroke fill"/></svg></svg>
