<svg xmlns="http://www.w3.org/2000/svg" viewBox="0 0 495 96" width="495" height="96"><rect x="26" y="8" width="16" height="16" fill="#B73A15"/><rect x="54" y="8" width="16" height="16" fill="#B73A15"/><path d="M18 34 H78 V88 H18 Z M36 52 H60 V70 H36 Z" fill="#B73A15" fill-rule="evenodd"/><path d="M394 1490V0H118V1490Z" transform="matrix(0.0361328125 0 0 -0.0361328125 96 71)" fill="#121212"/><path d="M578 -22Q423 -22 310.0 50.5Q197 123 136.0 252.5Q75 382 75 554Q75 727 136.0 857.0Q197 987 310.0 1059.5Q423 1132 578 1132Q732 1132 845.5 1059.5Q959 987 1020.0 857.0Q1081 727 1081 554Q1081 382 1020.0 252.5Q959 123 845.5 50.5Q732 -22 578 -22ZM578 214Q688 214 744.0 311.0Q800 408 800 555Q800 703 744.0 799.5Q688 896 578 896Q467 896 411.5 799.5Q356 703 356 555Q356 408 411.5 311.0Q467 214 578 214Z" transform="matrix(0.0361328125 0 0 -0.0361328125 112.8033203125 71)" fill="#121212"/><path d="M582 -22Q425 -22 311.0 48.0Q197 118 136.0 247.0Q75 376 75 553Q75 726 136.0 856.0Q197 986 308.0 1059.0Q419 1132 569 1132Q703 1132 812.5 1070.0Q922 1008 987.0 882.0Q1052 756 1052 565V481H348Q352 344 417.5 274.0Q483 204 587 204Q660 204 712.0 237.5Q764 271 786 336L1036 285Q998 146 880.0 62.0Q762 -22 582 -22ZM350 669H786Q776 778 721.5 842.0Q667 906 571 906Q472 906 415.0 839.5Q358 773 350 669Z" transform="matrix(0.0361328125 0 0 -0.0361328125 154.0685546875 71)" fill="#121212"/><path d="M394 647V0H118V1490H388V904Q433 1013 510.5 1072.5Q588 1132 702 1132Q862 1132 959.0 1020.0Q1056 908 1056 711V0H779V659Q779 763 730.0 822.0Q681 881 593 881Q505 881 449.5 819.5Q394 758 394 647Z" transform="matrix(0.0361328125 0 0 -0.0361328125 194.03300781250002 71)" fill="#121212"/><path d="M118 0V1118H385V923H396Q424 1026 491.0 1079.5Q558 1133 644 1133Q691 1133 733 1123V855Q715 861 679.5 865.5Q644 870 614 870Q518 870 456.0 805.0Q394 740 394 636V0Z" transform="matrix(0.0361328125 0 0 -0.0361328125 235.94863281250002 71)" fill="#121212"/><path d="M394 647V0H118V1118H378L382 887Q425 1004 504.0 1068.0Q583 1132 702 1132Q862 1132 958.5 1020.0Q1055 908 1055 711V0H779V659Q779 763 730.0 822.0Q681 881 593 881Q505 881 449.5 819.5Q394 758 394 647Z" transform="matrix(0.0361328125 0 0 -0.0361328125 262.435546875 71)" fill="#121212"/><path d="M118 0V1118H394V0ZM255 1264Q193 1264 149.0 1309.0Q105 1354 105 1418Q105 1482 149.0 1527.0Q193 1572 255 1572Q318 1572 362.5 1527.0Q407 1482 407 1418Q407 1354 362.5 1309.0Q318 1264 255 1264Z" transform="matrix(0.0361328125 0 0 -0.0361328125 304.351171875 71)" fill="#121212"/><path d="M394 647V0H118V1118H378L382 887Q425 1004 504.0 1068.0Q583 1132 702 1132Q862 1132 958.5 1020.0Q1055 908 1055 711V0H779V659Q779 763 730.0 822.0Q681 881 593 881Q505 881 449.5 819.5Q394 758 394 647Z" transform="matrix(0.0361328125 0 0 -0.0361328125 321.15449218749995 71)" fill="#121212"/><path d="M575 -442Q382 -442 264.0 -365.0Q146 -288 112 -168L350 -96Q369 -143 421.0 -183.5Q473 -224 573 -224Q678 -224 738.5 -171.5Q799 -119 799 -8V198H778Q750 130 684.0 73.0Q618 16 493 16Q377 16 282.5 75.0Q188 134 131.5 255.0Q75 376 75 561Q75 750 132.5 877.0Q190 1004 285.0 1068.0Q380 1132 494 1132Q581 1132 639.5 1100.0Q698 1068 734.5 1021.0Q771 974 789 930H801V1118H1073V9Q1073 -142 1009.0 -242.5Q945 -343 832.0 -392.5Q719 -442 575 -442ZM580 244Q685 244 742.5 328.5Q800 413 800 563Q800 712 743.0 802.0Q686 892 580 892Q471 892 414.5 799.5Q358 707 358 563Q358 416 415.0 330.0Q472 244 580 244Z" transform="matrix(0.0361328125 0 0 -0.0361328125 363.07011718749993 71)" fill="#121212"/><path d="M315 -19Q247 -19 201.0 30.5Q155 80 155 153Q155 226 201.0 275.5Q247 325 315 325Q382 325 428.0 275.5Q474 226 474 153Q474 80 428.0 30.5Q382 -19 315 -19Z" transform="matrix(0.0361328125 0 0 -0.0361328125 405.6361328124999 71)" fill="#B73A15"/><path d="M405 -22Q258 -22 160.5 62.5Q63 147 63 313Q63 438 118.0 509.0Q173 580 261.5 613.0Q350 646 451 656Q583 670 641.5 685.5Q700 701 700 756V761Q700 832 658.0 871.0Q616 910 539 910Q459 910 410.5 872.5Q362 835 345 781L92 827Q132 972 250.0 1052.0Q368 1132 540 1132Q650 1132 750.0 1094.0Q850 1056 913.0 972.5Q976 889 976 753V0H715V155H706Q668 77 593.5 27.5Q519 -22 405 -22ZM483 189Q580 189 641.0 250.0Q702 311 702 400V521Q685 508 648.0 498.5Q611 489 569.5 481.5Q528 474 498 470Q421 458 374.5 423.0Q328 388 328 321Q328 256 371.5 222.5Q415 189 483 189Z" transform="matrix(0.0361328125 0 0 -0.0361328125 426.8837890624999 71)" fill="#B73A15"/><path d="M118 0V1118H394V0ZM255 1264Q193 1264 149.0 1309.0Q105 1354 105 1418Q105 1482 149.0 1527.0Q193 1572 255 1572Q318 1572 362.5 1527.0Q407 1482 407 1418Q407 1354 362.5 1309.0Q318 1264 255 1264Z" transform="matrix(0.0361328125 0 0 -0.0361328125 465.80039062499986 71)" fill="#B73A15"/></svg>
